<?xml version="1.0" standalone="no"?>
<!DOCTYPE svg PUBLIC "-//W3C//DTD SVG 20010904//EN"
 "http://www.w3.org/TR/2001/REC-SVG-20010904/DTD/svg10.dtd">
<svg version="1.0" xmlns="http://www.w3.org/2000/svg"
 width="1200.000000pt" height="1200.000000pt" viewBox="0 0 1200.000000 1200.000000"
 preserveAspectRatio="xMidYMid meet">

<g transform="translate(0.000000,1200.000000) scale(0.100000,-0.100000)"
fill="#000000" stroke="none">
<path d="M2230 9861 l0 -1481 1482 0 1481 0 -587 587 c-323 322 -583 590 -579
594 18 17 267 139 404 197 1073 456 2304 421 3354 -94 1194 -586 2030 -1711
2239 -3014 40 -246 50 -377 49 -650 0 -470 -66 -870 -214 -1300 -33 -96 -63
-184 -65 -196 -5 -18 46 -51 426 -273 238 -138 434 -250 435 -249 12 15 119
297 165 438 105 316 183 674 225 1035 23 190 31 695 16 907 -108 1464 -829
2792 -2002 3683 -759 577 -1665 926 -2619 1010 -202 17 -634 20 -826 5 -510
-40 -1001 -154 -1484 -344 -178 -70 -544 -250 -704 -346 -66 -40 -125 -74
-132 -77 -7 -2 -249 233 -538 523 l-526 527 0 -1482z"/>
<path d="M1276 7853 c-137 -348 -250 -779 -301 -1143 -44 -315 -58 -781 -35
-1091 94 -1216 612 -2341 1475 -3204 868 -868 1999 -1386 3223 -1476 209 -15
717 -7 902 15 739 87 1410 310 2019 671 79 47 149 85 156 85 6 0 172 -162 368
-360 195 -198 430 -433 521 -521 l166 -161 0 1476 0 1476 -1477 0 -1478 0 585
-585 c468 -469 582 -587 570 -595 -44 -30 -303 -155 -419 -204 -496 -209
-1000 -309 -1551 -309 -353 -1 -622 30 -945 108 -383 92 -779 251 -1111 446
-958 563 -1650 1494 -1908 2569 -181 755 -143 1533 113 2273 l38 111 -421 255
c-232 139 -428 256 -436 258 -11 3 -25 -22 -54 -94z"/>
</g>
</svg>
