<?xml version="1.0" standalone="no"?>
<!DOCTYPE svg PUBLIC "-//W3C//DTD SVG 20010904//EN"
 "http://www.w3.org/TR/2001/REC-SVG-20010904/DTD/svg10.dtd">
<svg version="1.0" xmlns="http://www.w3.org/2000/svg"
 width="190.000000pt" height="137.000000pt" viewBox="0 0 190.000000 137.000000"
 preserveAspectRatio="xMidYMid meet">

<g transform="translate(0.000000,137.000000) scale(0.100000,-0.100000)"
fill="#000000" stroke="none">
<path d="M975 1361 c-87 -7 -93 -10 -154 -61 -86 -72 -111 -99 -111 -119 0
-24 62 -97 91 -106 16 -5 18 -13 13 -43 -3 -25 0 -44 9 -57 14 -18 13 -22 -10
-43 -21 -19 -24 -29 -20 -59 5 -29 2 -39 -21 -61 -15 -14 -21 -22 -14 -18 7 4
12 1 12 -8 0 -19 -4 -20 -31 -3 -17 10 -22 9 -30 -5 -11 -19 -39 -25 -39 -8 0
5 8 14 18 20 15 9 14 10 -5 5 -17 -5 -23 -2 -23 9 0 19 30 21 50 4 12 -11 12
-10 1 5 -17 21 -61 23 -61 2 0 -17 -21 -20 -37 -4 -8 8 -13 8 -18 0 -3 -6 -3
-11 2 -10 4 1 19 -2 31 -6 18 -6 20 -10 10 -16 -10 -7 -9 -9 5 -9 9 0 17 -4
17 -9 0 -5 -9 -7 -20 -4 -11 3 -20 0 -20 -6 0 -6 6 -11 14 -11 21 0 27 -52 8
-66 -9 -6 -13 -19 -10 -31 3 -11 -1 -31 -8 -44 -20 -37 -17 -81 12 -143 14
-32 23 -60 20 -63 -3 -3 -28 -6 -55 -7 -43 -2 -51 1 -60 21 -22 48 -98 76
-166 61 -74 -17 -118 -79 -118 -169 0 -67 23 -113 73 -146 66 -46 166 -22 209
49 l20 31 3 -49 c3 -49 3 -49 38 -49 l35 0 5 75 c3 41 9 81 13 88 15 22 27 13
21 -17 -14 -71 40 -146 106 -146 21 0 36 -3 33 -8 -3 -5 -29 -6 -58 -2 -51 6
-53 5 -59 -20 -4 -15 -2 -33 4 -40 17 -21 93 -29 135 -15 37 12 75 59 75 93 0
16 2 16 23 3 25 -17 163 -20 173 -4 3 5 11 4 19 -2 8 -6 26 -10 42 -8 27 3 28
5 31 68 3 96 9 112 35 108 20 -3 22 -10 27 -88 l5 -85 35 0 35 0 3 96 c3 92 1
98 -24 128 -21 26 -23 32 -10 36 9 3 23 7 31 10 8 2 15 -1 15 -8 1 -7 2 -68 3
-137 l2 -125 35 0 c32 0 35 3 38 32 l3 32 27 -30 c30 -33 79 -46 137 -35 34 7
36 9 33 39 -3 30 -5 32 -44 32 -51 1 -74 18 -74 56 0 37 32 59 76 52 30 -5 35
-2 44 23 14 37 -7 54 -67 54 -51 0 -97 -21 -115 -53 -12 -21 -13 -21 -18 13
-4 19 -2 43 2 53 12 23 1 55 -20 61 -14 5 -17 19 -17 73 -1 70 -23 127 -92
236 -15 24 -22 45 -18 58 4 12 0 31 -10 45 -15 24 -15 27 1 45 9 10 24 19 32
19 7 0 30 16 49 35 31 31 35 40 30 70 -3 19 -19 54 -35 77 -15 24 -34 58 -42
77 -7 18 -28 52 -46 75 -81 102 -84 103 -289 87z m-44 -27 c-30 -8 -61 -20
-70 -27 -12 -10 -13 -9 -7 1 12 20 66 41 101 41 23 0 17 -4 -24 -15z m189 -15
c-11 -8 -7 -9 17 -4 42 8 96 -18 125 -59 l22 -31 -24 20 c-12 11 -21 16 -19
10 12 -30 64 -123 80 -144 23 -29 25 -84 3 -105 -26 -27 -34 -18 -34 39 0 110
-50 178 -157 215 -24 8 -25 8 -9 -3 96 -63 119 -88 132 -142 l7 -30 -29 31
c-38 41 -109 84 -161 100 -49 15 -134 5 -186 -21 l-31 -15 24 25 c13 14 19 25
14 25 -21 -1 -56 -38 -70 -75 -14 -39 -15 -39 -10 -7 3 19 15 47 27 63 15 22
16 27 5 23 -28 -11 -58 -72 -54 -109 4 -32 3 -33 -13 -19 -18 16 -30 60 -22
80 3 7 24 25 48 39 24 14 46 33 50 44 9 30 54 44 160 51 55 4 105 7 110 8 6 1
3 -3 -5 -9z m-320 -59 c-24 -22 -47 -37 -50 -33 -3 3 4 10 14 17 10 6 31 21
45 33 14 12 28 22 31 22 3 0 -15 -17 -40 -39z m238 -164 c-21 -8 -19 -10 22
-16 25 -4 48 -6 51 -4 4 2 14 -7 23 -21 14 -21 19 -23 36 -13 24 16 34 6 26
-27 -4 -15 -13 -25 -24 -25 -9 0 -22 -10 -27 -22 -23 -53 -161 -81 -217 -44
-35 23 -37 31 -31 109 5 53 9 67 22 67 13 0 13 -2 2 -9 -9 -6 -4 -10 18 -13
24 -4 31 -1 31 12 0 24 39 40 68 27 l24 -11 -24 -10z m335 -73 c-8 -24 -44
-63 -57 -63 -6 0 0 7 12 16 13 9 27 27 32 40 11 27 23 33 13 7z m-283 -137 c0
-35 -56 -68 -96 -57 -21 5 -30 14 -32 34 -3 24 0 26 45 30 26 2 56 4 66 5 9 1
17 -4 17 -12z m51 -36 c5 0 4 -11 -1 -25 -5 -14 -7 -31 -4 -39 3 -8 1 -17 -5
-21 -7 -4 -8 0 -5 10 4 9 3 15 -2 14 -9 -2 -63 11 -77 18 -12 7 56 52 71 47 8
-2 18 -4 23 -4z m-191 -9 c0 -5 -9 -11 -21 -14 -16 -4 -18 -3 -8 9 13 16 29
19 29 5z m-120 -60 c0 -44 -4 -51 -31 -44 -23 6 -25 40 -3 71 21 30 34 19 34
-27z m70 40 c0 -5 -7 -11 -15 -15 -9 -3 -15 0 -15 9 0 8 7 15 15 15 8 0 15 -4
15 -9z m109 -22 c-7 -4 -5 -9 5 -12 20 -8 21 -47 2 -47 -7 0 -19 7 -27 16 -12
15 -61 44 -75 44 -4 0 12 -14 35 -30 23 -17 39 -35 35 -41 -4 -8 -10 -7 -17 0
-6 6 -18 11 -26 11 -9 0 -24 12 -35 26 -24 34 -9 44 61 42 29 -1 48 -5 42 -9z
m287 -45 c63 -98 84 -153 84 -219 0 -45 -5 -65 -17 -77 -10 -9 -24 -24 -31
-32 -18 -22 -45 -20 -60 4 -10 17 -10 21 3 26 9 4 22 -1 30 -12 8 -11 14 -14
15 -9 0 19 -15 33 -43 40 -48 12 -33 79 26 115 l32 20 -37 0 c-44 0 -45 3 -18
48 l20 32 -30 0 c-29 0 -30 2 -30 48 -1 37 -3 43 -11 29 -15 -26 -29 -11 -16
18 19 40 44 30 83 -31z m-399 7 c10 -16 8 -22 -12 -35 -24 -16 -25 -15 -25 3
0 24 10 51 19 51 3 0 12 -9 18 -19z m193 -27 c11 -23 15 -25 18 -11 4 21 28
22 36 1 3 -8 3 -26 0 -40 -6 -22 -11 -24 -63 -24 -64 0 -76 6 -78 38 -2 23 11
30 22 12 10 -16 25 -11 23 8 -5 59 16 68 42 16z m116 -24 c2 -21 -3 -33 -16
-40 -32 -17 -39 -12 -33 28 11 69 44 78 49 12z m-365 17 c-10 -9 -11 -8 -5 6
3 10 9 15 12 12 3 -3 0 -11 -7 -18z m-155 -2 c-3 -9 0 -15 9 -15 8 0 13 -9 12
-21 -1 -20 -3 -20 -24 6 -23 26 -23 45 -1 45 5 0 8 -7 4 -15z m282 -17 c6 -6
12 -19 12 -29 0 -16 -8 -19 -50 -19 -61 0 -77 22 -40 52 23 18 51 17 78 -4z
m-134 -10 c23 -32 21 -34 -33 -36 -40 -1 -50 3 -54 18 -11 42 60 57 87 18z
m406 -47 c0 -6 -4 -12 -8 -15 -5 -3 -9 1 -9 9 0 8 4 15 9 15 4 0 8 -4 8 -9z
m-535 -11 c-3 -5 -15 -10 -26 -10 -11 0 -17 5 -14 10 3 6 15 10 26 10 11 0 17
-4 14 -10z m55 -5 c-7 -8 -21 -15 -32 -15 -17 0 -18 3 -8 15 7 8 21 15 32 15
17 0 18 -3 8 -15z m60 5 c0 -12 -28 -25 -36 -17 -9 9 6 27 22 27 8 0 14 -5 14
-10z m64 -5 c-4 -8 -17 -15 -30 -15 -17 0 -22 4 -18 15 4 8 17 15 30 15 17 0
22 -4 18 -15z m61 5 c3 -6 -6 -15 -20 -20 -34 -13 -34 -13 -28 10 6 21 37 27
48 10z m73 -2 c-3 -7 -17 -14 -31 -16 -21 -3 -26 0 -21 12 7 19 58 22 52 4z
m70 3 c10 -6 6 -10 -15 -14 -32 -6 -38 -3 -28 12 7 13 25 14 43 2z m62 4 c0
-2 -9 -9 -20 -15 -16 -9 -18 -8 -14 5 5 13 34 22 34 10z m56 -4 c-3 -5 -15
-11 -26 -14 -17 -4 -19 -3 -9 9 12 15 44 20 35 5z m-366 -39 c69 -1 136 -1
150 -2 25 -2 25 -2 -5 -15 l-30 -14 30 -1 c19 0 37 8 48 20 17 20 54 29 42 10
-3 -5 -12 -10 -20 -10 -8 0 -17 -5 -20 -11 -5 -7 6 -8 32 -4 34 5 35 4 13 -6
-14 -6 -32 -15 -40 -20 -8 -5 -25 -13 -37 -19 -31 -13 -29 -22 4 -18 15 2 28
-2 31 -10 2 -7 0 -12 -5 -10 -4 1 -24 -8 -43 -20 -35 -22 -35 -22 -8 -22 15 0
33 7 42 15 8 8 26 15 39 15 45 0 117 -13 117 -21 0 -4 -30 -11 -66 -14 -47 -5
-62 -11 -55 -18 17 -17 13 -27 -10 -27 -14 0 -19 5 -16 15 7 17 -9 30 -18 15
-3 -5 -23 -17 -43 -27 -20 -9 -40 -21 -43 -26 -4 -5 -9 -4 -13 2 -4 6 -29 11
-56 11 -33 0 -50 5 -54 15 -3 8 -14 15 -25 15 -28 0 -76 60 -96 119 -19 59
-15 87 12 73 10 -6 74 -10 143 -10z m355 -2 c-3 -5 -13 -10 -21 -10 -8 0 -14
5 -14 10 0 6 9 10 21 10 11 0 17 -4 14 -10z m-533 -74 c6 4 6 -2 -1 -15 -7
-11 -15 -21 -20 -21 -15 0 -21 59 -9 88 12 27 12 27 16 -16 2 -26 7 -40 14
-36z m478 45 c0 -5 -7 -12 -16 -15 -14 -5 -15 -4 -4 9 14 17 20 19 20 6z m-55
-31 c3 -6 -1 -13 -10 -16 -19 -8 -30 0 -20 15 8 14 22 14 30 1z m-392 -64 c4
-9 -2 -17 -14 -21 -25 -8 -34 -1 -26 20 8 19 33 20 40 1z m-206 -42 c35 -22
53 -57 60 -112 7 -62 -21 -128 -66 -155 -34 -20 -98 -22 -136 -5 -65 29 -92
154 -50 227 37 64 130 85 192 45z m928 -9 c0 -22 -31 -33 -47 -17 -17 17 -1
44 24 40 15 -2 23 -10 23 -23z m-685 0 c7 -8 21 -15 31 -15 11 0 19 -4 19 -10
0 -5 -11 -10 -25 -10 -14 0 -25 -4 -25 -10 0 -15 -12 -12 -39 9 -16 12 -22 24
-18 35 8 20 41 21 57 1z m518 1 c24 -15 12 -34 -24 -38 -25 -3 -38 0 -41 10
-4 9 -14 11 -29 8 -36 -10 -29 10 9 21 35 11 66 11 85 -1z m-628 -68 c0 -9 3
-9 12 0 7 7 22 12 35 12 31 0 32 -37 1 -42 -32 -4 -48 -43 -48 -115 0 -56 -2
-63 -20 -63 -19 0 -20 7 -20 110 0 103 1 110 20 110 11 0 20 -5 20 -12z m218
0 c9 -9 12 -9 12 0 0 7 9 12 20 12 19 0 20 -7 20 -124 0 -116 -2 -127 -23
-152 -28 -32 -110 -45 -141 -21 -28 21 -11 39 29 31 45 -8 74 3 86 33 12 33 9
35 -28 21 -83 -31 -154 74 -108 162 8 16 23 34 32 39 25 14 86 14 101 -1z
m232 -8 c16 -16 20 -33 20 -87 0 -38 3 -78 6 -90 5 -20 2 -23 -20 -23 -14 0
-26 5 -26 12 0 9 -3 9 -12 0 -21 -21 -85 -15 -102 10 -22 31 -20 52 7 83 15
18 36 28 65 32 46 6 51 13 26 37 -18 19 -38 20 -65 6 -15 -9 -21 -7 -26 6 -8
22 14 34 65 34 29 0 48 -6 62 -20z m110 10 c0 -7 6 -7 19 0 31 16 79 12 101
-10 17 -17 20 -33 20 -110 0 -83 -1 -90 -20 -90 -18 0 -20 7 -20 71 0 82 -11
109 -45 109 -38 0 -55 -35 -55 -112 0 -61 -2 -68 -20 -68 -19 0 -20 7 -20 110
0 103 1 110 20 110 11 0 20 -5 20 -10z m230 -100 c0 -103 -1 -110 -20 -110
-19 0 -20 7 -20 110 0 103 1 110 20 110 19 0 20 -7 20 -110z m203 104 c16 -17
-8 -34 -49 -34 -33 0 -46 -5 -58 -22 -21 -29 -20 -67 0 -97 14 -19 24 -22 60
-19 34 2 44 -1 47 -14 6 -20 -12 -28 -63 -28 -75 0 -124 71 -100 145 17 50 53
75 110 75 26 0 49 -3 53 -6z m-627 -60 c-22 -8 -48 -22 -58 -31 -17 -15 -18
-15 -18 12 0 23 3 26 23 22 12 -3 31 -1 42 3 11 5 27 9 35 9 8 0 -3 -7 -24
-15z m131 -16 c-3 -7 -5 -2 -5 12 0 14 2 19 5 13 2 -7 2 -19 0 -25z"/>
<path d="M917 1053 c-3 -5 5 -8 18 -8 13 0 21 3 18 8 -2 4 -10 7 -18 7 -8 0
-16 -3 -18 -7z"/>
<path d="M1050 1056 c0 -2 9 -6 20 -9 11 -3 18 -1 14 4 -5 9 -34 13 -34 5z"/>
<path d="M957 1023 c-10 -9 -9 -33 1 -33 4 0 8 9 9 20 2 21 0 24 -10 13z"/>
<path d="M990 970 c-34 -7 -34 -7 -5 -8 17 0 39 3 50 8 24 10 4 10 -45 0z"/>
<path d="M358 391 c-28 -25 -32 -34 -32 -84 -1 -74 25 -111 80 -115 31 -2 44
2 63 22 47 50 36 163 -19 191 -41 21 -55 19 -92 -14z m92 -9 c30 -24 38 -97
16 -140 -16 -30 -30 -37 -66 -32 -61 8 -80 120 -30 170 25 25 51 25 80 2z"/>
<path d="M780 332 c-25 -8 -40 -34 -40 -72 0 -63 62 -94 94 -48 39 55 2 138
-54 120z m48 -60 c4 -37 -12 -62 -38 -62 -20 0 -30 19 -30 59 0 35 8 43 40 39
20 -2 26 -9 28 -36z"/>
<path d="M993 250 c-27 -11 -31 -55 -7 -64 25 -10 64 20 64 49 0 27 -17 31
-57 15z m37 -18 c0 -10 -22 -32 -32 -32 -13 0 -9 28 5 33 19 8 27 8 27 -1z"/>
<path d="M750 836 c0 -2 7 -7 16 -10 8 -3 12 -2 9 4 -6 10 -25 14 -25 6z"/>
<path d="M600 770 c-9 -6 -10 -10 -3 -10 6 0 15 5 18 10 8 12 4 12 -15 0z"/>
<path d="M951 53 c1 -21 3 -30 6 -21 2 9 12 19 21 21 15 4 15 5 0 6 -10 0 -18
5 -18 10 0 5 8 12 18 14 13 4 11 5 -5 6 -20 1 -23 -4 -22 -36z"/>
<path d="M1071 76 c-19 -23 -4 -58 22 -54 17 2 22 10 22 33 0 34 -24 45 -44
21z m36 -12 c8 -21 -13 -42 -28 -27 -13 13 -5 43 11 43 6 0 13 -7 17 -16z"/>
<path d="M1207 84 c-13 -13 -7 -55 8 -60 21 -9 47 15 43 40 -3 21 -37 34 -51
20z m40 -20 c8 -21 -13 -42 -28 -27 -13 13 -5 43 11 43 6 0 13 -7 17 -16z"/>
<path d="M1340 55 c0 -32 3 -36 23 -33 17 2 22 10 22 33 0 23 -5 31 -22 33
-20 3 -23 -1 -23 -33z m35 0 c0 -10 -6 -20 -12 -23 -8 -2 -13 6 -13 23 0 17 5
25 13 23 6 -3 12 -13 12 -23z"/>
</g>
</svg>
